<?xml version="1.0" encoding="UTF-8"?>
<svg xmlns="http://www.w3.org/2000/svg" width="2078" height="790" viewBox="0 0 2078 790" fill="none">
  <g clip-path="url(#clip0_807_1962)">
    <path d="M383.161 207.96C395.866 207.96 406.165 197.662 406.165 184.957C406.165 172.253 395.866 161.954 383.161 161.954C370.457 161.954 360.158 172.253 360.158 184.957C360.158 197.662 370.457 207.96 383.161 207.96Z" fill="#1C41A7"></path>
    <path d="M463.741 221.097C476.445 221.097 486.744 210.798 486.744 198.094C486.744 185.39 476.445 175.091 463.741 175.091C451.037 175.091 440.738 185.39 440.738 198.094C440.738 210.798 451.037 221.097 463.741 221.097Z" fill="#1C41A7"></path>
    <path d="M537.772 267.15C550.476 267.15 560.775 256.851 560.775 244.147C560.775 231.442 550.476 221.144 537.772 221.144C525.067 221.144 514.769 231.442 514.769 244.147C514.769 256.851 525.067 267.15 537.772 267.15Z" fill="#1C41A7"></path>
    <path d="M583.78 336.202C596.484 336.202 606.783 325.903 606.783 313.198C606.783 300.494 596.484 290.195 583.78 290.195C571.075 290.195 560.776 300.494 560.776 313.198C560.776 325.903 571.075 336.202 583.78 336.202Z" fill="#1C41A7"></path>
    <path d="M600.235 418.439C612.939 418.439 623.238 408.14 623.238 395.436C623.238 382.731 612.939 372.433 600.235 372.433C587.531 372.433 577.232 382.731 577.232 395.436C577.232 408.14 587.531 418.439 600.235 418.439Z" fill="#1C41A7"></path>
    <path d="M580.506 500.68C593.21 500.68 603.509 490.381 603.509 477.677C603.509 464.973 593.21 454.674 580.506 454.674C567.802 454.674 557.503 464.973 557.503 477.677C557.503 490.381 567.802 500.68 580.506 500.68Z" fill="#1C41A7"></path>
    <path d="M534.454 571.392C547.159 571.392 557.458 561.093 557.458 548.389C557.458 535.685 547.159 525.386 534.454 525.386C521.75 525.386 511.451 535.685 511.451 548.389C511.451 561.093 521.75 571.392 534.454 571.392Z" fill="#1C41A7"></path>
    <path d="M463.741 619.056C476.445 619.056 486.744 608.757 486.744 596.053C486.744 583.349 476.445 573.05 463.741 573.05C451.037 573.05 440.738 583.349 440.738 596.053C440.738 608.757 451.037 619.056 463.741 619.056Z" fill="#1C41A7"></path>
    <path d="M295.991 615.787C308.696 615.787 318.995 605.488 318.995 592.783C318.995 580.079 308.696 569.78 295.991 569.78C283.287 569.78 272.988 580.079 272.988 592.783C272.988 605.488 283.287 615.787 295.991 615.787Z" fill="#1C41A7"></path>
    <path d="M379.888 638.788C392.592 638.788 402.891 628.489 402.891 615.784C402.891 603.08 392.592 592.781 379.888 592.781C367.184 592.781 356.885 603.08 356.885 615.784C356.885 628.489 367.184 638.788 379.888 638.788Z" fill="#1C41A7"></path>
    <path d="M228.597 569.732C241.301 569.732 251.6 559.433 251.6 546.729C251.6 534.024 241.301 523.726 228.597 523.726C215.893 523.726 205.594 534.024 205.594 546.729C205.594 559.433 215.893 569.732 228.597 569.732Z" fill="#1C41A7"></path>
    <path d="M177.614 500.68C190.318 500.68 200.617 490.381 200.617 477.677C200.617 464.973 190.318 454.674 177.614 454.674C164.909 454.674 154.61 464.973 154.61 477.677C154.61 490.381 164.909 500.68 177.614 500.68Z" fill="#1C41A7"></path>
    <path d="M166.09 418.439C178.794 418.439 189.093 408.14 189.093 395.436C189.093 382.731 178.794 372.433 166.09 372.433C153.386 372.433 143.087 382.731 143.087 395.436C143.087 408.14 153.386 418.439 166.09 418.439Z" fill="#1C41A7"></path>
    <path d="M177.614 336.202C190.318 336.202 200.617 325.903 200.617 313.198C200.617 300.494 190.318 290.195 177.614 290.195C164.909 290.195 154.61 300.494 154.61 313.198C154.61 325.903 164.909 336.202 177.614 336.202Z" fill="#1C41A7"></path>
    <path d="M225.278 267.15C237.982 267.15 248.281 256.851 248.281 244.147C248.281 231.442 237.982 221.144 225.278 221.144C212.574 221.144 202.275 231.442 202.275 244.147C202.275 256.851 212.574 267.15 225.278 267.15Z" fill="#1C41A7"></path>
    <path d="M299.311 221.097C312.016 221.097 322.314 210.798 322.314 198.094C322.314 185.39 312.016 175.091 299.311 175.091C286.607 175.091 276.308 185.39 276.308 198.094C276.308 210.798 286.607 221.097 299.311 221.097Z" fill="#1C41A7"></path>
    <path d="M335.496 137.245C344.585 137.245 351.952 129.877 351.952 120.789C351.952 111.7 344.585 104.332 335.496 104.332C326.407 104.332 319.04 111.7 319.04 120.789C319.04 129.877 326.407 137.245 335.496 137.245Z" fill="#1C41A7"></path>
    <path d="M440.738 142.18C449.826 142.18 457.194 134.812 457.194 125.723C457.194 116.634 449.826 109.267 440.738 109.267C431.649 109.267 424.281 116.634 424.281 125.723C424.281 134.812 431.649 142.18 440.738 142.18Z" fill="#1C41A7"></path>
    <path d="M541.047 181.638C550.135 181.638 557.503 174.27 557.503 165.181C557.503 156.092 550.135 148.725 541.047 148.725C531.958 148.725 524.59 156.092 524.59 165.181C524.59 174.27 531.958 181.638 541.047 181.638Z" fill="#1C41A7"></path>
    <path d="M619.965 260.603C629.053 260.603 636.421 253.236 636.421 244.147C636.421 235.058 629.053 227.69 619.965 227.69C610.876 227.69 603.508 235.058 603.508 244.147C603.508 253.236 610.876 260.603 619.965 260.603Z" fill="#1C41A7"></path>
    <path d="M657.809 355.977C666.898 355.977 674.266 348.61 674.266 339.521C674.266 330.432 666.898 323.064 657.809 323.064C648.721 323.064 641.353 330.432 641.353 339.521C641.353 348.61 648.721 355.977 657.809 355.977Z" fill="#1C41A7"></path>
    <path d="M661.082 466.151C670.171 466.151 677.539 458.783 677.539 449.695C677.539 440.606 670.171 433.238 661.082 433.238C651.994 433.238 644.626 440.606 644.626 449.695C644.626 458.783 651.994 466.151 661.082 466.151Z" fill="#1C41A7"></path>
    <path d="M613.418 561.526C622.507 561.526 629.875 554.158 629.875 545.07C629.875 535.981 622.507 528.613 613.418 528.613C604.33 528.613 596.962 535.981 596.962 545.07C596.962 554.158 604.33 561.526 613.418 561.526Z" fill="#1C41A7"></path>
    <path d="M537.772 635.56C546.861 635.56 554.228 628.193 554.228 619.104C554.228 610.015 546.861 602.647 537.772 602.647C528.683 602.647 521.315 610.015 521.315 619.104C521.315 628.193 528.683 635.56 537.772 635.56Z" fill="#1C41A7"></path>
    <path d="M440.738 678.29C449.826 678.29 457.194 670.922 457.194 661.833C457.194 652.745 449.826 645.377 440.738 645.377C431.649 645.377 424.281 652.745 424.281 661.833C424.281 670.922 431.649 678.29 440.738 678.29Z" fill="#1C41A7"></path>
    <path d="M328.906 678.29C337.995 678.29 345.363 670.922 345.363 661.833C345.363 652.745 337.995 645.377 328.906 645.377C319.818 645.377 312.45 652.745 312.45 661.833C312.45 670.922 319.818 678.29 328.906 678.29Z" fill="#1C41A7"></path>
    <path d="M228.597 635.56C237.686 635.56 245.054 628.193 245.054 619.104C245.054 610.015 237.686 602.647 228.597 602.647C219.508 602.647 212.141 610.015 212.141 619.104C212.141 628.193 219.508 635.56 228.597 635.56Z" fill="#1C41A7"></path>
    <path d="M159.497 556.595C168.586 556.595 175.954 549.227 175.954 540.138C175.954 531.049 168.586 523.682 159.497 523.682C150.409 523.682 143.041 531.049 143.041 540.138C143.041 549.227 150.409 556.595 159.497 556.595Z" fill="#1C41A7"></path>
    <path d="M111.832 459.561C120.921 459.561 128.288 452.194 128.288 443.105C128.288 434.016 120.921 426.648 111.832 426.648C102.743 426.648 95.3755 434.016 95.3755 443.105C95.3755 452.194 102.743 459.561 111.832 459.561Z" fill="#1C41A7"></path>
    <path d="M116.765 352.706C125.854 352.706 133.222 345.338 133.222 336.249C133.222 327.161 125.854 319.793 116.765 319.793C107.676 319.793 100.309 327.161 100.309 336.249C100.309 345.338 107.676 352.706 116.765 352.706Z" fill="#1C41A7"></path>
    <path d="M157.884 254.009C166.972 254.009 174.34 246.641 174.34 237.552C174.34 228.464 166.972 221.096 157.884 221.096C148.795 221.096 141.427 228.464 141.427 237.552C141.427 246.641 148.795 254.009 157.884 254.009Z" fill="#1C41A7"></path>
    <path d="M231.871 178.362C240.959 178.362 248.327 170.994 248.327 161.906C248.327 152.817 240.959 145.449 231.871 145.449C222.782 145.449 215.414 152.817 215.414 161.906C215.414 170.994 222.782 178.362 231.871 178.362Z" fill="#1C41A7"></path>
    <path d="M270.523 86.2629C277.333 86.2629 282.854 80.742 282.854 73.9317C282.854 67.1214 277.333 61.6006 270.523 61.6006C263.713 61.6006 258.192 67.1214 258.192 73.9317C258.192 80.742 263.713 86.2629 270.523 86.2629Z" fill="#1C41A7"></path>
    <path d="M319.039 17.1626C323.571 17.1626 327.245 13.4887 327.245 8.95679C327.245 4.42485 323.571 0.750977 319.039 0.750977C314.507 0.750977 310.833 4.42485 310.833 8.95679C310.833 13.4887 314.507 17.1626 319.039 17.1626Z" fill="#1C41A7"></path>
    <path d="M475.265 23.7534C479.797 23.7534 483.471 20.0796 483.471 15.5476C483.471 11.0157 479.797 7.3418 475.265 7.3418C470.733 7.3418 467.06 11.0157 467.06 15.5476C467.06 20.0796 470.733 23.7534 475.265 23.7534Z" fill="#1C41A7"></path>
    <path d="M610.1 86.2622C614.632 86.2622 618.306 82.5884 618.306 78.0564C618.306 73.5245 614.632 69.8506 610.1 69.8506C605.568 69.8506 601.895 73.5245 601.895 78.0564C601.895 82.5884 605.568 86.2622 610.1 86.2622Z" fill="#1C41A7"></path>
    <path d="M713.726 186.572C718.258 186.572 721.932 182.898 721.932 178.366C721.932 173.834 718.258 170.16 713.726 170.16C709.194 170.16 705.521 173.834 705.521 178.366C705.521 182.898 709.194 186.572 713.726 186.572Z" fill="#1C41A7"></path>
    <path d="M776.19 329.659C780.722 329.659 784.395 325.985 784.395 321.453C784.395 316.921 780.722 313.247 776.19 313.247C771.658 313.247 767.984 316.921 767.984 321.453C767.984 325.985 771.658 329.659 776.19 329.659Z" fill="#1C41A7"></path>
    <path d="M769.643 477.632C774.175 477.632 777.849 473.958 777.849 469.426C777.849 464.895 774.175 461.221 769.643 461.221C765.111 461.221 761.437 464.895 761.437 469.426C761.437 473.958 765.111 477.632 769.643 477.632Z" fill="#1C41A7"></path>
    <path d="M712.069 617.444C716.601 617.444 720.274 613.77 720.274 609.238C720.274 604.706 716.601 601.032 712.069 601.032C707.537 601.032 703.863 604.706 703.863 609.238C703.863 613.77 707.537 617.444 712.069 617.444Z" fill="#1C41A7"></path>
    <path d="M598.621 719.363C603.153 719.363 606.827 715.689 606.827 711.157C606.827 706.625 603.153 702.951 598.621 702.951C594.089 702.951 590.415 706.625 590.415 711.157C590.415 715.689 594.089 719.363 598.621 719.363Z" fill="#1C41A7"></path>
    <path d="M458.809 773.667C463.341 773.667 467.015 769.994 467.015 765.462C467.015 760.93 463.341 757.256 458.809 757.256C454.277 757.256 450.604 760.93 450.604 765.462C450.604 769.994 454.277 773.667 458.809 773.667Z" fill="#1C41A7"></path>
    <path d="M310.79 773.667C315.322 773.667 318.996 769.994 318.996 765.462C318.996 760.93 315.322 757.256 310.79 757.256C306.258 757.256 302.584 760.93 302.584 765.462C302.584 769.994 306.258 773.667 310.79 773.667Z" fill="#1C41A7"></path>
    <path d="M166.09 719.363C170.622 719.363 174.295 715.689 174.295 711.157C174.295 706.625 170.622 702.951 166.09 702.951C161.558 702.951 157.884 706.625 157.884 711.157C157.884 715.689 161.558 719.363 166.09 719.363Z" fill="#1C41A7"></path>
    <path d="M60.8499 604.258C65.3818 604.258 69.0557 600.584 69.0557 596.053C69.0557 591.521 65.3818 587.847 60.8499 587.847C56.3179 587.847 52.644 591.521 52.644 596.053C52.644 600.584 56.3179 604.258 60.8499 604.258Z" fill="#1C41A7"></path>
    <path d="M8.20582 467.766C12.7378 467.766 16.4116 464.092 16.4116 459.56C16.4116 455.028 12.7378 451.354 8.20582 451.354C3.67387 451.354 0 455.028 0 459.56C0 464.092 3.67387 467.766 8.20582 467.766Z" fill="#1C41A7"></path>
    <path d="M8.20582 314.814C12.7378 314.814 16.4116 311.14 16.4116 306.608C16.4116 302.076 12.7378 298.402 8.20582 298.402C3.67387 298.402 0 302.076 0 306.608C0 311.14 3.67387 314.814 8.20582 314.814Z" fill="#1C41A7"></path>
    <path d="M70.7131 178.322C75.2451 178.322 78.919 174.648 78.919 170.116C78.919 165.584 75.2451 161.91 70.7131 161.91C66.1812 161.91 62.5073 165.584 62.5073 170.116C62.5073 174.648 66.1812 178.322 70.7131 178.322Z" fill="#1C41A7"></path>
    <path d="M179.272 71.4673C183.804 71.4673 187.478 67.7934 187.478 63.2615C187.478 58.7295 183.804 55.0557 179.272 55.0557C174.74 55.0557 171.066 58.7295 171.066 63.2615C171.066 67.7934 174.74 71.4673 179.272 71.4673Z" fill="#1C41A7"></path>
    <path d="M402.085 66.5324C408.895 66.5324 414.416 61.0116 414.416 54.2013C414.416 47.391 408.895 41.8701 402.085 41.8701C395.274 41.8701 389.753 47.391 389.753 54.2013C389.753 61.0116 395.274 66.5324 402.085 66.5324Z" fill="#1C41A7"></path>
    <path d="M528.715 102.719C535.526 102.719 541.047 97.1981 541.047 90.3878C541.047 83.5775 535.526 78.0566 528.715 78.0566C521.905 78.0566 516.384 83.5775 516.384 90.3878C516.384 97.1981 521.905 102.719 528.715 102.719Z" fill="#1C41A7"></path>
    <path d="M632.296 173.431C639.106 173.431 644.627 167.91 644.627 161.1C644.627 154.289 639.106 148.769 632.296 148.769C625.485 148.769 619.964 154.289 619.964 161.1C619.964 167.91 625.485 173.431 632.296 173.431Z" fill="#1C41A7"></path>
    <path d="M707.942 285.266C714.752 285.266 720.273 279.745 720.273 272.935C720.273 266.124 714.752 260.604 707.942 260.604C701.132 260.604 695.611 266.124 695.611 272.935C695.611 279.745 701.132 285.266 707.942 285.266Z" fill="#1C41A7"></path>
    <path d="M721.125 411.896C727.935 411.896 733.456 406.375 733.456 399.565C733.456 392.754 727.935 387.233 721.125 387.233C714.315 387.233 708.794 392.754 708.794 399.565C708.794 406.375 714.315 411.896 721.125 411.896Z" fill="#1C41A7"></path>
    <path d="M694.805 538.479C701.616 538.479 707.136 532.958 707.136 526.148C707.136 519.337 701.616 513.816 694.805 513.816C687.995 513.816 682.474 519.337 682.474 526.148C682.474 532.958 687.995 538.479 694.805 538.479Z" fill="#1C41A7"></path>
    <path d="M615.885 643.767C622.696 643.767 628.216 638.246 628.216 631.436C628.216 624.625 622.696 619.104 615.885 619.104C609.075 619.104 603.554 624.625 603.554 631.436C603.554 638.246 609.075 643.767 615.885 643.767Z" fill="#1C41A7"></path>
    <path d="M502.394 711.158C509.204 711.158 514.725 705.638 514.725 698.827C514.725 692.017 509.204 686.496 502.394 686.496C495.583 686.496 490.062 692.017 490.062 698.827C490.062 705.638 495.583 711.158 502.394 711.158Z" fill="#1C41A7"></path>
    <path d="M379.036 732.55C385.847 732.55 391.367 727.029 391.367 720.219C391.367 713.409 385.847 707.888 379.036 707.888C372.226 707.888 366.705 713.409 366.705 720.219C366.705 727.029 372.226 732.55 379.036 732.55Z" fill="#1C41A7"></path>
    <path d="M244.202 706.228C251.012 706.228 256.533 700.707 256.533 693.897C256.533 687.086 251.012 681.565 244.202 681.565C237.391 681.565 231.871 687.086 231.871 693.897C231.871 700.707 237.391 706.228 244.202 706.228Z" fill="#1C41A7"></path>
    <path d="M140.619 624.034C147.43 624.034 152.95 618.514 152.95 611.703C152.95 604.893 147.43 599.372 140.619 599.372C133.809 599.372 128.288 604.893 128.288 611.703C128.288 618.514 133.809 624.034 140.619 624.034Z" fill="#1C41A7"></path>
    <path d="M74.8385 515.477C81.6488 515.477 87.1696 509.956 87.1696 503.146C87.1696 496.335 81.6488 490.814 74.8385 490.814C68.0282 490.814 62.5073 496.335 62.5073 503.146C62.5073 509.956 68.0282 515.477 74.8385 515.477Z" fill="#1C41A7"></path>
    <path d="M50.1764 387.186C56.9867 387.186 62.5075 381.665 62.5075 374.855C62.5075 368.044 56.9867 362.523 50.1764 362.523C43.3661 362.523 37.8452 368.044 37.8452 374.855C37.8452 381.665 43.3661 387.186 50.1764 387.186Z" fill="#1C41A7"></path>
    <path d="M86.318 258.944C93.1283 258.944 98.6491 253.423 98.6491 246.612C98.6491 239.802 93.1283 234.281 86.318 234.281C79.5077 234.281 73.9868 239.802 73.9868 246.612C73.9868 253.423 79.5077 258.944 86.318 258.944Z" fill="#1C41A7"></path>
    <path d="M160.349 153.704C167.159 153.704 172.68 148.183 172.68 141.373C172.68 134.563 167.159 129.042 160.349 129.042C153.538 129.042 148.018 134.563 148.018 141.373C148.018 148.183 153.538 153.704 160.349 153.704Z" fill="#1C41A7"></path>
    <path d="M903.626 101.601C903.626 97.9237 906.541 94.6504 910.576 94.6504H1059.76C1063.8 94.6504 1066.71 97.9686 1066.71 101.601V131.644C1066.71 135.321 1063.8 138.594 1059.76 138.594H951.247V198.725H1041.78C1045.46 198.725 1048.73 202.043 1048.73 205.676V236.122C1048.73 240.158 1045.41 243.073 1041.78 243.073H951.247V307.239H1059.76C1063.8 307.239 1066.71 310.558 1066.71 314.19V344.233C1066.71 347.91 1063.8 351.183 1059.76 351.183H910.576C906.541 351.183 903.626 347.865 903.626 344.233V101.601Z" fill="#1C41A7"></path>
    <path d="M1162.45 200.967C1177.11 200.967 1188.45 205.003 1195.09 207.559V101.601C1195.09 97.9237 1198.41 94.6504 1202.04 94.6504H1233.21C1236.88 94.6504 1240.16 97.9686 1240.16 101.601V344.278C1240.16 347.955 1236.84 351.228 1233.21 351.228H1218.9C1215.58 351.228 1213.03 348.313 1211.95 344.278L1208.27 332.933C1208.27 332.933 1191.06 354.95 1160.25 354.95C1120.3 354.95 1089.85 320.109 1089.85 277.958C1089.85 235.808 1118.82 200.967 1162.45 200.967ZM1165.77 315.356C1185.18 315.356 1193.97 300.334 1196.57 291.545V249.036C1196.57 249.036 1186.3 240.606 1167.96 240.606C1147.43 240.606 1132.4 257.466 1132.4 278.003C1132.4 298.54 1146.35 315.4 1165.77 315.4V315.356Z" fill="#1C41A7"></path>
    <path d="M1296.25 299.213C1296.25 299.213 1285.27 286.748 1285.27 264.776C1285.27 230.697 1312.75 200.968 1349.07 200.968H1415.8C1419.83 200.968 1422.75 203.882 1422.75 207.918V220.025C1422.75 222.581 1421.27 225.54 1418.71 226.258L1398.17 232.849C1398.17 232.849 1412.84 244.194 1412.84 270.246C1412.84 299.213 1388.67 327.822 1350.15 327.822C1336.2 327.822 1326.7 324.907 1320.82 324.907C1315.71 324.907 1307.28 330.019 1307.28 338.852C1307.28 346.565 1313.87 351.318 1321.94 351.318H1368.85C1402.21 351.318 1429.34 370.375 1429.34 402.66C1429.34 434.946 1402.21 464.989 1349.07 464.989C1295.94 464.989 1274.28 438.219 1274.28 414.767C1274.28 392.751 1292.62 382.124 1296.25 379.926V378.805C1290.02 376.967 1268.76 367.057 1268.76 340.332C1268.76 311.724 1296.25 299.258 1296.25 299.258V299.213ZM1348.67 428.264C1369.21 428.264 1382.75 419.117 1382.75 405.172C1382.75 398.58 1377.64 387.19 1355.98 387.19C1347.91 387.19 1339.84 387.549 1332.17 388.67C1327.77 390.15 1316.43 395.262 1316.43 406.651C1316.43 419.476 1328.9 428.264 1348.67 428.264ZM1350.15 292.981C1365.17 292.981 1375.44 281.995 1375.44 266.569C1375.44 251.144 1365.17 240.158 1350.15 240.158C1335.13 240.158 1324.5 251.144 1324.5 266.569C1324.5 281.995 1335.49 292.981 1350.15 292.981Z" fill="#1C41A7"></path>
    <path d="M1517.31 200.968C1555.07 200.968 1585.88 229.576 1585.88 269.17C1585.88 271.726 1585.52 276.524 1585.16 279.08C1584.8 282.757 1581.48 285.313 1578.21 285.313H1484.36C1485.48 300.334 1498.3 317.194 1519.56 317.194C1530.9 317.194 1541.53 312.8 1548.17 308.047C1551.84 305.85 1555.12 305.132 1557.72 308.047L1572.74 325.266C1575.29 327.822 1576.06 331.857 1572.38 334.817C1560.27 346.161 1541.57 354.995 1517.76 354.995C1473.77 354.995 1442.61 320.154 1442.61 278.004C1442.61 235.854 1473.77 201.013 1517.4 201.013L1517.31 200.968ZM1542.96 259.619C1541.84 246.077 1530.14 234.688 1516.19 234.688C1501.53 234.688 1489.42 245.674 1487.59 259.619H1542.92H1542.96Z" fill="#1C41A7"></path>
    <path d="M888.605 643.141L901.788 620.407C904.703 615.295 910.936 615.295 914.254 617.851C916.093 618.972 945.777 640.585 969.587 640.585C988.645 640.585 1002.95 628.119 1002.95 612.38C1002.95 593.682 987.165 580.857 956.404 568.392C921.922 554.446 887.484 532.474 887.484 489.203C887.484 456.559 911.698 418.804 969.946 418.804C1007.34 418.804 1035.95 437.861 1043.26 443.376C1046.94 445.573 1048.01 451.806 1045.46 455.483L1031.51 476.379C1028.55 480.773 1023.08 483.733 1018.69 480.773C1015.77 478.935 987.882 460.595 967.749 460.595C947.615 460.595 935.464 474.54 935.464 486.244C935.464 503.463 949.05 515.211 978.735 527.318C1014.29 541.622 1055.37 562.876 1055.37 610.183C1055.37 647.939 1022.72 682.78 971.067 682.78C924.881 682.78 897.753 661.167 890.399 654.172C887.081 650.853 885.287 649.06 888.56 643.186L888.605 643.141Z" fill="#1C41A7"></path>
    <path d="M1152.54 528.75C1190.29 528.75 1221.1 557.358 1221.1 596.952C1221.1 599.508 1220.74 604.306 1220.38 606.862C1220.02 610.539 1216.7 613.095 1213.43 613.095H1119.58C1120.7 628.117 1133.52 644.977 1154.78 644.977C1166.17 644.977 1176.8 640.582 1183.39 635.829C1187.06 633.632 1190.34 632.915 1192.94 635.829L1207.96 653.048C1210.52 655.604 1211.28 659.64 1207.6 662.599C1195.49 673.989 1176.8 682.777 1152.99 682.777C1109 682.777 1077.83 647.936 1077.83 605.786C1077.83 563.636 1109 528.795 1152.63 528.795L1152.54 528.75ZM1178.19 587.401C1177.06 573.815 1165.36 562.47 1151.42 562.47C1136.75 562.47 1124.65 573.456 1122.81 587.401H1178.14H1178.19Z" fill="#1C41A7"></path>
    <path d="M1318.63 528.752C1341.36 528.752 1358.94 537.899 1372.88 554.759C1375.44 558.077 1374.72 562.472 1371.04 565.028L1354.18 581.17C1350.87 584.085 1347.59 582.291 1345.04 580.049C1339.16 573.458 1330.02 568.301 1319.75 568.301C1299.97 568.301 1283.83 585.161 1283.83 605.698C1283.83 626.235 1299.61 643.095 1319.39 643.095C1335.17 643.095 1342.12 635.383 1348.71 629.15C1351.27 626.594 1354.95 625.832 1357.86 628.029L1373.65 641.571C1377.32 644.485 1378.76 648.162 1376.2 651.839C1363.74 671.255 1344.32 682.645 1318.27 682.645C1276.83 682.645 1240.56 649.642 1240.56 605.653C1240.56 561.665 1277.6 528.662 1318.63 528.662V528.752Z" fill="#1C41A7"></path>
    <path d="M1405.48 539.378C1405.48 535.342 1408.8 532.428 1412.43 532.428H1442.48C1446.15 532.428 1449.43 535.342 1449.43 539.378V611.616C1449.43 631.032 1459.34 643.139 1476.2 643.139C1491.58 643.139 1503.32 628.835 1505.52 615.652V539.423C1505.52 533.907 1507.72 532.473 1513.59 532.473H1541.44C1545.12 532.473 1548.39 535.387 1548.39 539.423V672.106C1548.39 675.783 1545.07 679.056 1541.44 679.056H1527.85C1524.18 679.056 1521.98 676.5 1520.9 673.541L1516.51 661.434C1509.92 667.308 1496.33 682.688 1467.41 682.688C1421.94 682.688 1405.44 647.847 1405.44 610.45V539.333L1405.48 539.378Z" fill="#1C41A7"></path>
    <path d="M1592.47 539.377C1592.47 535.342 1595.79 532.427 1599.42 532.427H1613.36C1616.68 532.427 1618.88 534.265 1619.95 537.18L1625.11 551.484C1630.22 544.175 1643.81 528.75 1666.54 528.75C1683.76 528.75 1699.19 534.265 1694.75 543.413L1681.21 567.223C1679.37 570.541 1675.69 571.976 1672.78 570.541C1671.66 570.183 1666.19 568.344 1662.15 568.344C1647.49 568.344 1638.7 578.254 1636.14 583.366V672.06C1636.14 677.217 1632.82 679.011 1627.71 679.011H1599.51C1595.83 679.011 1592.56 675.692 1592.56 672.06V539.377H1592.47Z" fill="#1C41A7"></path>
    <path d="M1714.17 455.08C1714.17 441.135 1725.15 429.79 1739.1 429.79C1753.04 429.79 1764.75 441.135 1764.75 455.08C1764.75 469.026 1753.36 480.37 1739.1 480.37C1724.84 480.37 1714.17 469.026 1714.17 455.08ZM1717.48 539.38C1717.48 535.345 1720.8 532.43 1724.43 532.43H1754.84C1758.51 532.43 1761.79 535.345 1761.79 539.38V672.063C1761.79 675.74 1758.47 679.014 1754.84 679.014H1724.43C1720.76 679.014 1717.48 675.696 1717.48 672.063V539.38Z" fill="#1C41A7"></path>
    <path d="M1813.53 570.949H1801.06C1797.39 570.949 1794.47 567.63 1794.47 563.998V539.426C1794.47 535.39 1797.39 532.475 1801.06 532.475H1813.53V491.805C1813.53 488.128 1816.85 484.855 1820.48 484.855L1850.52 484.496C1854.2 484.496 1857.11 487.814 1857.11 491.446V532.52H1889.4C1893.44 532.52 1896.35 535.435 1896.35 539.471V564.043C1896.35 567.72 1893.44 570.993 1889.4 570.993H1857.11V629.645C1857.11 639.913 1862.63 641.393 1868.46 641.393C1874.69 641.393 1882.4 638.837 1886.44 637.357C1890.48 635.878 1893.39 637.716 1894.51 641.393L1901.87 664.486C1903.35 668.163 1901.51 671.795 1897.83 673.275C1895.99 674.396 1872.18 682.826 1854.2 682.826C1826 682.826 1813.53 665.248 1813.53 635.519V570.993V570.949Z" fill="#1C41A7"></path>
    <path d="M1913.21 541.979C1911.02 537.226 1913.93 532.428 1919.45 532.428H1952.45C1955.77 532.428 1957.56 534.266 1958.68 536.463L1995.72 619.329H1996.08L2032.76 536.463C2034.6 532.786 2037.15 532.428 2041.55 532.428H2070.87C2076.75 532.428 2079.66 537.181 2077.11 541.979L1964.91 784.656C1963.79 786.853 1961.6 789.05 1958.68 789.05H1927.16C1921.64 789.05 1918.37 784.297 1920.93 779.14L1972.99 668.788L1913.21 541.934V541.979Z" fill="#1C41A7"></path>
  </g>
  <defs>
    <clipPath id="clip0_807_1962">
      <rect width="2078" height="788.297" fill="white" transform="translate(0 0.751953)"></rect>
    </clipPath>
  </defs>
</svg>
