<svg width="128" height="33" viewBox="0 0 128 33" fill="none" xmlns="http://www.w3.org/2000/svg">
<path d="M35.2161 23.5378C36.6027 23.5378 37.8753 23.1649 38.9959 22.4583V17.1H36.8496V21.1433C36.3367 21.3395 35.8429 21.3984 35.2921 21.3984C33.3736 21.3984 32.31 20.1619 32.31 16.9234C32.31 13.783 33.3546 12.5661 35.2921 12.5661C36.1468 12.5661 37.0205 12.8212 37.8183 13.2923L38.768 11.3688C37.6853 10.7015 36.5457 10.4267 35.2541 10.4267C31.9111 10.4267 29.9357 12.6838 29.9357 16.9234C29.9357 21.4573 31.8921 23.5378 35.2161 23.5378Z" fill="#081736"/>
<path d="M42.6055 12.2324C43.4602 12.2324 43.9161 11.6632 43.9161 10.9174C43.9161 10.1912 43.4602 9.5827 42.6055 9.5827C41.7697 9.5827 41.2948 10.1912 41.2948 10.9174C41.2948 11.6632 41.7697 12.2324 42.6055 12.2324ZM43.7261 13.5474H41.4848V23.3415H43.7261V13.5474Z" fill="#081736"/>
<path d="M52.3777 13.5474H49.5286V11.094H47.8951L47.4392 13.5474L45.6347 13.8222V15.4906H47.3252V20.26C47.3252 22.4779 48.4839 23.5378 50.3833 23.5378C51.2381 23.5378 52.0738 23.3023 52.7956 22.8901L52.1688 21.0648C51.6179 21.3395 51.1431 21.4573 50.6872 21.4573C49.9085 21.4573 49.5286 21.1236 49.5286 20.1619V15.4906H52.3777V13.5474Z" fill="#081736"/>
<path d="M59.4969 23.5378C60.8835 23.5378 62.1561 23.1649 63.2767 22.4583V17.1H61.1304V21.1433C60.6175 21.3395 60.1237 21.3984 59.5728 21.3984C57.6544 21.3984 56.5907 20.1619 56.5907 16.9234C56.5907 13.783 57.6354 12.5661 59.5728 12.5661C60.4276 12.5661 61.3013 12.8212 62.0991 13.2923L63.0488 11.3688C61.9661 10.7015 60.8265 10.4267 59.5349 10.4267C56.1919 10.4267 54.2165 12.6838 54.2165 16.9234C54.2165 21.4573 56.1729 23.5378 59.4969 23.5378Z" fill="#081736"/>
<path d="M65.6896 13.5474V20.2404C65.6896 22.3798 66.7153 23.5378 68.5198 23.5378C69.4505 23.5378 70.2862 23.2238 71.4259 22.1639V23.3415H73.5912V13.5474H71.3499V20.4956C70.4762 21.1825 69.7734 21.418 69.2035 21.418C68.3488 21.418 67.9309 20.9862 67.9309 19.9264V13.5474H65.6896Z" fill="#081736"/>
<path d="M83.7808 23.3415V17.0019C83.7808 14.4111 82.5082 13.3512 80.2098 13.3512C79.0512 13.3512 77.7026 13.7045 76.335 14.3914L77.0188 16.2168C78.2344 15.6476 79.1272 15.4121 79.868 15.4121C81.1026 15.4121 81.5964 15.9027 81.5964 17.1589V17.7281H79.4501C77.0948 17.7281 76.0121 19.0235 76.0121 20.6329C76.0121 22.3994 77.2277 23.5378 78.8802 23.5378C79.9439 23.5378 80.8367 23.1845 81.6534 22.262V23.3415H83.7808ZM79.4881 21.7125C78.6713 21.7125 78.1775 21.3003 78.1775 20.4956C78.1775 19.8282 78.5763 19.3375 79.583 19.3375H81.5964V20.79C80.8367 21.4573 80.2098 21.7125 79.4881 21.7125Z" fill="#081736"/>
<path d="M88.819 23.3415V16.4916C89.8067 15.8242 90.7754 15.6083 92.029 15.6083V13.3512C90.8894 13.3512 89.9397 13.6652 88.743 14.8429V13.5474H86.5777V23.3415H88.819Z" fill="#081736"/>
<path d="M101.823 23.3415V10.0341H99.5817V13.8222C98.9358 13.5082 98.29 13.3512 97.5873 13.3512C95.3079 13.3512 93.5035 14.8232 93.5035 18.4739C93.5035 22.2031 95.08 23.5378 97.0744 23.5378C98.0241 23.5378 98.8599 23.1845 99.6766 22.2817V23.3415H101.823ZM97.7202 21.4769C96.3906 21.4769 95.7638 20.7703 95.7638 18.4739C95.7638 16.0598 96.4476 15.3139 97.9861 15.3139C98.48 15.3139 99.0308 15.4317 99.5817 15.6672V20.7507C98.9358 21.3003 98.309 21.4769 97.7202 21.4769Z" fill="#081736"/>
<path d="M105.858 12.2324C106.713 12.2324 107.169 11.6632 107.169 10.9174C107.169 10.1912 106.713 9.5827 105.858 9.5827C105.022 9.5827 104.547 10.1912 104.547 10.9174C104.547 11.6632 105.022 12.2324 105.858 12.2324ZM106.979 13.5474H104.737V23.3415H106.979V13.5474Z" fill="#081736"/>
<path d="M117.188 23.3415V17.0019C117.188 14.4111 115.915 13.3512 113.617 13.3512C112.458 13.3512 111.11 13.7045 109.742 14.3914L110.426 16.2168C111.641 15.6476 112.534 15.4121 113.275 15.4121C114.51 15.4121 115.003 15.9027 115.003 17.1589V17.7281H112.857C110.502 17.7281 109.419 19.0235 109.419 20.6329C109.419 22.3994 110.635 23.5378 112.287 23.5378C113.351 23.5378 114.244 23.1845 115.06 22.262V23.3415H117.188ZM112.895 21.7125C112.078 21.7125 111.584 21.3003 111.584 20.4956C111.584 19.8282 111.983 19.3375 112.99 19.3375H115.003V20.79C114.244 21.4573 113.617 21.7125 112.895 21.7125Z" fill="#081736"/>
<path d="M122.226 23.3415V16.413C123.138 15.7065 123.897 15.4709 124.486 15.4709C125.341 15.4709 125.759 15.9224 125.759 16.9822V23.3415H128V16.6486C128 14.5092 126.975 13.3512 125.17 13.3512C124.22 13.3512 123.328 13.6652 122.15 14.7447V13.5474H119.985V23.3415H122.226Z" fill="#081736"/>
<path fill-rule="evenodd" clip-rule="evenodd" d="M18.6295 1.17168C17.6525 0.291804 16.1869 0.302233 15.2126 1.1752C14.4295 1.87708 13.4261 2.26356 12.387 2.26356C11.3481 2.26356 10.3447 1.87702 9.56185 1.17522C8.5869 0.301541 7.12094 0.29248 6.14414 1.17224L6.13924 1.17666L6.13439 1.18115C3.17402 3.91983 2.83696 7.13366 2.92646 9.02085L1.72252 9.9405C0.642883 10.7511 0 12.0533 0 13.4292V15.0872C0 20.4117 2.02218 25.6773 5.38829 28.8137C7.94568 31.1963 10.195 32.5121 12.3866 32.5161H12.39C14.5795 32.5121 16.8289 31.1961 19.3859 28.8137C22.7524 25.6773 24.7742 20.4117 24.7742 15.0872V13.4292C24.7742 12.0546 24.1326 10.7519 23.0568 9.94435L21.8497 9.02234C21.9346 7.07045 21.531 3.84004 18.6371 1.17863L18.6333 1.17513L18.6295 1.17168Z" fill="white"/>
<path fill-rule="evenodd" clip-rule="evenodd" d="M11.8227 7.82788C11.6916 7.6892 11.5171 7.50468 11.2611 7.26344C9.53023 5.63218 7.24255 5.18111 5.40981 6.46009C5.78994 5.09188 6.54543 3.84811 7.60809 2.89112C7.7463 2.76669 7.95851 2.76969 8.10202 2.89822C9.29388 3.96244 10.7775 4.54886 12.3869 4.54886C13.9963 4.54886 15.4839 3.96244 16.6718 2.89822C16.815 2.76969 17.0275 2.76669 17.1657 2.89112C18.2284 3.84811 18.9839 5.09188 19.364 6.46009C17.5313 5.18111 15.2436 5.63218 13.5127 7.26344C13.2567 7.50468 13.0822 7.6892 12.9511 7.82788C12.692 8.10192 12.6021 8.19696 12.3869 8.19696C12.1717 8.19696 12.0818 8.10192 11.8227 7.82788ZM6.57756 14.9033C7.92141 16.2011 9.63027 16.9966 11.4784 17.1944C12.2527 18.5509 12.679 20.2583 12.679 22.0252C12.679 24.7496 11.5805 27.3537 9.65945 29.2231C8.82995 28.715 7.92114 28.0001 6.9232 27.0701C5.26633 25.5265 3.97421 23.3358 3.1792 20.8474L6.57756 14.9033Z" fill="#32466E"/>
<path fill-rule="evenodd" clip-rule="evenodd" d="M3.077 11.8353L4.22747 10.9566C4.52616 12.0186 5.01638 13.0125 5.67663 13.8879L2.70907 19.078C2.43319 17.7867 2.2865 16.4425 2.2865 15.0872V13.4291C2.2865 12.7925 2.57272 12.2129 3.077 11.8353ZM20.564 10.9698L21.702 11.8392C22.2013 12.2131 22.4878 12.7924 22.4878 13.429V15.087C22.4878 18.5034 21.5593 21.8489 19.9648 24.4475C20.4388 23.0635 20.7083 21.6082 20.7083 20.2245C20.7083 18.0415 20.103 15.9395 18.956 14.1213C19.7154 13.1902 20.2669 12.0425 20.564 10.9698Z" fill="white"/>
<path fill-rule="evenodd" clip-rule="evenodd" d="M19.9644 24.4476C21.5592 21.8487 22.4876 18.5035 22.4876 15.0871V13.4291C22.4876 12.7925 22.2011 12.2131 21.7019 11.8393L20.5639 10.9699C20.2668 12.0426 19.7151 13.1903 18.9559 14.1214C20.1029 15.9396 20.7082 18.0415 20.7082 20.2243C20.7082 21.608 20.4384 23.0633 19.9644 24.4476ZM12.3881 30.1636C13.3245 30.1622 14.407 29.7327 15.6607 28.8655C17.8184 27.0419 19.4312 23.364 19.4312 20.2243C19.4312 18.3979 18.9505 16.6362 18.0388 15.0912C16.6329 16.3628 14.8545 17.1067 12.939 17.2259C13.5982 18.647 13.9561 20.316 13.9561 22.0253C13.9561 24.9503 12.8385 27.7519 10.8697 29.8394C11.4137 30.0542 11.9193 30.163 12.3881 30.1636ZM6.923 27.0702C7.9212 27.9999 8.82975 28.7149 9.65951 29.2232C11.5806 27.3538 12.6788 24.7497 12.6788 22.0253C12.6788 20.2581 12.2528 18.5507 11.4785 17.1945C9.63033 16.9967 7.9212 16.2012 6.57762 14.9034L3.17926 20.8473C3.974 23.3359 5.26639 25.5266 6.923 27.0702ZM2.28637 13.4291V15.0871C2.28637 16.4427 2.43306 17.7869 2.70894 19.0779L5.6765 13.8878C5.01651 13.0124 4.52629 12.0186 4.2276 10.9565L3.07713 11.8352C2.57259 12.2129 2.28637 12.7925 2.28637 13.4291ZM13.5065 9.15754C13.1046 9.66032 12.79 10.0538 12.3867 10.0538C11.9835 10.0538 11.6691 9.66046 11.2674 9.15782C11.1017 8.95051 10.9212 8.72462 10.7134 8.50008C9.4335 7.09695 7.79732 6.74575 6.60759 7.23257C5.59135 7.64843 5.10352 8.60842 5.23854 9.83227C5.49002 11.3566 6.17441 12.7425 7.23097 13.8242C8.58119 15.2069 10.3935 15.9682 12.3867 15.9682C14.3802 15.9682 16.1925 15.2069 17.5428 13.8242C18.5991 12.7425 19.2835 11.3566 19.5352 9.83227C19.67 8.60842 19.1824 7.64843 18.1659 7.23257C16.9767 6.74575 15.3405 7.09695 14.0603 8.50008C13.8527 8.72452 13.6722 8.95031 13.5065 9.15754ZM16.6716 2.89817C15.484 3.9624 13.9961 4.54881 12.3867 4.54881C10.7774 4.54881 9.29397 3.9624 8.10212 2.89817C7.95861 2.76965 7.74639 2.76665 7.60819 2.89108C6.54552 3.84806 5.79003 5.09184 5.4099 6.46005C7.24265 5.18107 9.53006 5.63241 11.2612 7.2634C11.5168 7.50438 11.6912 7.68876 11.8222 7.82739C12.0817 8.10177 12.1716 8.19692 12.387 8.19692C12.6022 8.19692 12.6921 8.10187 12.9512 7.82783C13.0823 7.68916 13.2568 7.50464 13.5128 7.2634C15.2437 5.63241 17.5311 5.18107 19.3641 6.46005C18.984 5.09184 18.2282 3.84806 17.1658 2.89108C17.0276 2.76665 16.8151 2.76965 16.6716 2.89817ZM20.8318 9.50182L22.4752 10.7571C23.2986 11.3735 23.793 12.3739 23.793 13.4291V15.0871C23.793 20.1812 21.8521 25.1544 18.7272 28.0657C16.2109 30.4103 14.1964 31.5037 12.3881 31.507C10.5776 31.5037 8.56315 30.4103 6.04655 28.0657C2.92195 25.1544 0.980713 20.1812 0.980713 15.0871V13.4291C0.980713 12.3739 1.47544 11.3735 2.30361 10.7532L3.94509 9.49936C3.78566 7.91394 3.82864 4.67106 6.7901 1.93137C7.39332 1.38807 8.30797 1.38998 8.91729 1.93601C9.87889 2.79803 11.1111 3.27256 12.3867 3.27256C13.6627 3.27256 14.8949 2.79803 15.8567 1.93601C16.4658 1.39025 17.3802 1.3878 17.9831 1.93082C20.8618 4.57828 20.9995 7.8389 20.8318 9.50182ZM7.25341 10.2516C7.25341 9.52244 7.70224 8.9292 8.254 8.9292C8.80576 8.9292 9.25433 9.52244 9.25433 10.2516C9.25433 10.981 8.80576 11.5739 8.254 11.5739C7.70224 11.5739 7.25341 10.981 7.25341 10.2516ZM12.3841 11.1215C12.8586 11.1215 13.1995 11.4738 13.2327 11.998C13.2377 12.0761 13.2401 12.156 13.2401 12.2357C13.2401 13.0707 13.0767 13.7515 12.6936 14.5123L12.679 14.5415C12.6236 14.6545 12.5398 14.8247 12.3841 14.8247C12.2291 14.8247 12.1453 14.6552 12.0896 14.5425L12.0891 14.5415L12.0748 14.5123C11.6914 13.7515 11.5283 13.0707 11.5283 12.2357C11.5283 12.156 11.5307 12.0761 11.5357 11.998C11.5686 11.4738 11.9098 11.1215 12.3841 11.1215ZM17.8084 10.0452C17.6765 9.61379 17.2892 9.28115 16.8444 9.21784C16.2231 9.12943 15.5918 9.51282 15.1549 10.2428C15.0236 10.4613 15.0833 10.6466 15.183 10.7468C15.2512 10.8155 15.3422 10.8532 15.4454 10.8557C15.4468 10.8558 15.4482 10.8559 15.4496 10.8559C15.4504 10.8559 15.4512 10.8559 15.452 10.8559C15.5742 10.8559 15.6874 10.7732 15.7706 10.7124L15.7706 10.7124L15.7714 10.7118L15.809 10.6848C16.2595 10.371 16.6388 10.3484 17.0396 10.6106C17.2614 10.7558 17.4906 10.77 17.6527 10.6483C17.8203 10.5219 17.8816 10.2851 17.8084 10.0452Z" fill="#081736"/>
</svg>
