<svg width="1000" height="171" viewBox="0 0 1000 171" fill="none" xmlns="http://www.w3.org/2000/svg">
<path d="M123.503 39.8105L78.593 167.111H44.6492L0 39.8105H35.2494L60.8378 128.947L83.0318 51.0507C85.3818 43.4701 90.6039 39.8105 98.6982 39.8105H123.503V39.8105Z" fill="black"/>
<path d="M200.274 0.863281C228.735 0.863281 249.623 17.5928 250.929 42.9484H226.385C222.468 42.9484 219.596 41.38 217.507 37.9818C212.807 30.6627 205.757 27.2645 196.358 27.2645C175.73 27.2645 170.247 46.8694 169.203 70.1338C177.819 62.5533 188.785 58.8937 201.057 58.8937C233.435 58.8937 255.368 80.0669 255.368 112.219C255.368 146.462 231.868 169.727 196.358 169.727C150.925 169.727 133.953 137.836 133.953 89.4773C133.953 38.2432 152.492 0.863281 200.274 0.863281V0.863281ZM221.424 113.003C220.64 94.4439 211.763 85.2949 195.574 85.2949C179.125 86.0791 170.508 94.9667 169.986 112.48C170.247 133.131 179.125 143.587 196.619 143.587C212.285 143.587 220.64 133.392 221.424 113.003V113.003Z" fill="black"/>
<path d="M344.657 108.821H303.402V167.113H269.98V20.9912C269.98 11.5809 277.553 3.47754 286.691 3.47754H342.307C376.773 3.47754 394.789 22.0368 394.789 56.0186C394.789 90.0004 377.295 108.821 344.657 108.821V108.821ZM336.302 79.283C353.012 79.5444 361.629 71.7025 361.629 55.7572C361.629 39.8119 353.796 31.9699 338.129 31.9699H303.924V79.283H336.302V79.283Z" fill="black"/>
<path d="M409.672 101.501C410.716 60.461 432.388 39.8105 474.948 39.8105H479.387V73.0081H468.682C450.927 73.0081 442.049 82.4185 442.049 100.978V167.111H409.672V101.501V101.501Z" fill="black"/>
<path d="M609.157 104.112C609.157 147.766 589.574 169.985 551.191 169.985C512.808 169.985 493.486 147.766 493.486 104.112C493.486 60.4588 512.808 37.9785 551.191 37.9785C589.835 37.9785 609.157 59.6746 609.157 104.112ZM526.125 104.112C526.386 128.945 534.741 141.492 551.191 141.492C567.641 141.492 575.735 128.422 575.996 103.328C575.996 78.4952 567.902 66.2095 551.452 66.2095C534.48 65.9481 526.125 78.7566 526.125 104.112Z" fill="black"/>
<path d="M659.82 62.815H656.426V133.392C656.426 138.62 659.559 141.496 665.826 141.496H675.748V165.806C665.304 166.851 654.076 166.851 642.065 165.544C630.054 164.237 624.31 156.918 624.571 142.803V3.47754H641.021C649.376 3.47754 656.426 11.0581 656.426 19.6842V39.8119H675.748V46.8697C675.748 56.0186 668.698 62.815 659.82 62.815V62.815Z" fill="black"/>
<path d="M745.982 169.985C707.599 168.678 688.277 146.459 688.277 103.067C688.277 59.6746 707.86 38.2399 746.504 37.9785C786.976 37.9785 805.775 62.8114 803.425 112.477H721.177C722.482 132.082 730.838 141.754 746.504 141.754C754.076 141.754 760.865 138.617 767.131 132.605C770.004 129.468 773.659 128.161 777.837 128.161H801.336C794.287 155.085 777.054 169.985 745.982 169.985ZM721.699 89.7354H769.481C767.654 73.0059 759.559 64.1183 745.982 64.1183C732.404 64.1183 724.049 72.7445 721.699 89.7354Z" fill="black"/>
<path d="M876.278 169.985C837.895 169.985 818.051 147.766 817.268 104.112C817.268 60.4588 836.851 38.7627 875.755 37.9785C906.566 37.9785 924.843 51.5712 930.327 79.2794H895.6C891.683 70.6533 885.155 65.9481 874.972 65.9481C858.261 65.9481 849.645 78.7567 849.645 103.851C849.645 128.945 858.522 141.754 876.278 141.492C883.85 141.492 890.116 138.355 895.6 132.343C898.733 129.207 902.388 127.9 906.305 127.9H930.327C924.582 154.039 905.783 170.769 876.278 169.985V169.985Z" fill="black"/>
<path d="M982.548 62.815H979.154V133.392C979.154 138.62 982.287 141.496 988.553 141.496H998.475V165.806C988.031 166.851 976.804 166.851 964.793 165.544C952.782 164.237 947.037 156.918 947.299 142.803V3.47754H963.748C972.104 3.47754 979.154 11.0581 979.154 19.6842V39.8119H998.475V46.8697C998.214 56.0186 991.426 62.815 982.548 62.815V62.815Z" fill="black"/>
</svg>

